PathFileType	4	(X/Y/Z)	OpenSim_Sub06_CSStiffKnee_Gyro.trc
DataRate	CameraRate	NumFrames	NumMarkers	Units	OrigDataRate	OrigDataStartFrame	OrigNumFrames
100	100	27	8	m	100	2687	7164
Frame#	Time	torso_imu_offset_imu	pelvis_imu_offset_imu	tibia_r_imu_offset_imu	femur_r_imu_offset_imu	tibia_l_imu_offset_imu	femur_l_imu_offset_imu	toes_r_imu_offset_imu	toes_l_imu_offset_imu
				X1	Y1	Z1	X2	Y2	Z2	X3	Y3	Z3	X4	Y4	Z4	X5	Y5	Z5	X6	Y6	Z6	X7	Y7	Z7	X8		Y8	Z8	

2687	26.86000000	-0.44713260	0.09954729	-0.09410261	-0.69278989	0.07820025	0.19649565	-0.57387546	-0.05982056	-1.95136311	-0.22273852	1.04082379	1.29301738	-0.18022017	-0.43075970	0.80660310	0.74220575	-1.30064514	1.03224328	0.18806345	-4.16351440	-2.74522387	-0.02480890	-0.04710548	0.15718351
2688	26.87000000	-0.46945391	0.11889483	-0.03817753	-0.83803034	0.17319738	0.04557883	-0.72773006	0.02920620	-1.88515416	-0.30388368	0.99326837	1.35206762	0.23569448	-0.34725531	0.77695971	0.91364075	-0.92486787	0.77832201	0.38526852	-3.67869798	-2.82518739	0.00258298	-0.08179395	0.14840334
2689	26.88000000	-0.44230875	0.08322549	-0.00416046	-0.86379437	0.20913082	-0.04646681	-0.90123443	-0.02074060	-1.76056480	-0.34390732	0.89359929	1.36162852	0.29382807	-0.19629322	0.61297662	1.07176913	-0.28729678	0.66195921	0.80046857	-3.34395536	-2.94325916	0.04300135	-0.09249611	0.11512745
2690	26.89000000	-0.41345536	0.05586357	-0.01173269	-0.82941222	0.19987643	-0.06916474	-1.08659094	-0.14873837	-1.59187505	-0.30741283	0.72373814	1.32603920	0.10753864	-0.17972906	0.46258271	1.29207233	0.30074968	0.75471400	0.90819529	-2.96284709	-2.94662046	0.01745831	-0.13476301	0.09039278
2691	26.90000000	-0.41970647	0.02460507	-0.02585550	-0.72890675	0.14306069	-0.04547362	-1.17066230	-0.33223077	-1.42556571	-0.21293308	0.54032495	1.31118089	-0.08027891	-0.21513426	0.38209750	1.36791061	0.59927802	0.89291505	-0.00494663	-1.94594226	-2.48835341	0.07677660	-0.19545454	0.06892893
2692	26.91000000	-0.45607835	0.00133190	-0.02995192	-0.56735452	0.07533361	0.00954553	-1.15666258	-0.59010377	-1.29953228	-0.08883787	0.37322223	1.27461473	-0.24668154	-0.23683131	0.37987247	1.00268048	0.34601036	1.04531302	-1.30023040	0.20281326	-1.43009655	0.07388639	-0.23887462	0.05321097
2693	26.92000000	-0.44598766	0.00582361	-0.03758923	-0.37745877	0.05463419	0.06897346	-1.18342867	-0.82274191	-1.16742486	0.01337356	0.25647946	1.22011807	-0.38462007	-0.25341088	0.41321433	0.37734452	-0.10937096	1.18786959	-1.44114284	1.62816458	-0.76899550	0.07579899	-0.24782630	0.03099673
2694	26.93000000	-0.44744334	0.00012322	-0.03923034	-0.21283547	0.07625615	0.14394293	-1.40764962	-0.96176980	-0.96957200	0.09587418	0.21260678	1.17144950	-0.42590748	-0.26773328	0.47838173	-0.11114977	-0.33346602	1.23741211	-1.18726988	1.42987335	-0.76642072	0.10103482	-0.29708653	0.00809998
2695	26.94000000	-0.49493866	-0.02214667	-0.04714651	-0.10999441	0.10915116	0.24373894	-1.84661277	-1.17048286	-0.65414285	0.20980694	0.19106807	1.11583591	-0.30068367	-0.26620024	0.50781419	-0.35358212	-0.35539900	1.15310179	-0.88899342	1.25149244	-0.67655552	0.09992987	-0.30277078	-0.00319053
2696	26.95000000	-0.54257895	-0.05120787	-0.08900310	-0.04463066	0.13920375	0.32611840	-2.55328811	-1.33353169	-0.22814986	0.29837986	0.19491682	1.11945505	-0.12030946	-0.25375500	0.49409382	-0.36133539	-0.22976813	0.96488880	-0.81836746	1.42063670	-0.30719608	0.08439684	-0.31190788	0.00067104
2697	26.96000000	-0.56671905	-0.08628505	-0.17306085	-0.02896497	0.15187601	0.39830010	-2.96676961	-1.24295022	0.17888697	0.31850169	0.20742283	1.06690216	-0.02652088	-0.21236369	0.48948529	-0.27819765	-0.08061859	0.87939898	-0.82079633	1.63668666	0.21306739	0.05049857	-0.32677942	0.00339615
2698	26.97000000	-0.55258639	-0.11166121	-0.25132383	-0.06317131	0.12708704	0.44752349	-2.80985673	-1.00902790	0.56407370	0.34220846	0.29128886	0.98285095	0.01066438	-0.18605238	0.49774536	-0.17908271	-0.06070179	0.81720480	-0.78190068	1.86589878	0.73409435	0.02929961	-0.28955663	-0.00156568
2699	26.98000000	-0.52319009	-0.14435491	-0.30634031	-0.12148006	0.09806512	0.44900856	-2.50803446	-0.75724936	0.96443424	0.31822785	0.35913195	0.88259218	-0.02096610	-0.15532872	0.49764044	-0.11361334	-0.20009788	0.80730178	-0.66731822	2.09753387	1.17205820	-0.02033606	-0.31142078	0.00426471
2700	26.99000000	-0.51045953	-0.14607067	-0.33776529	-0.17126162	0.07386668	0.46312578	-2.19346463	-0.55604674	1.33877272	0.22669167	0.39471189	0.80816012	-0.09365948	-0.13418307	0.48290863	-0.08594491	-0.31946519	0.89512717	-0.53028668	2.28422994	1.48595687	-0.00917777	-0.31864334	0.01188974
2701	27.00000000	-0.52216839	-0.15513516	-0.34249305	-0.17612243	0.07311425	0.41301073	-1.70535292	-0.44795747	1.67517942	0.06855468	0.39915467	0.78692226	-0.17913496	-0.11690513	0.47438783	-0.03377039	-0.34733853	1.02996098	-0.44838470	2.46445552	1.68949068	-0.03272481	-0.32311428	0.02352909
2702	27.01000000	-0.51874517	-0.23117637	-0.34087529	-0.17656958	0.09513820	0.35580573	-1.13482714	-0.36581902	2.02080103	-0.11705931	0.38642823	0.82679317	-0.22100327	-0.10851176	0.47187727	0.05517882	-0.23667873	1.15628764	-0.48025001	2.66340186	1.82481964	-0.04303707	-0.34161858	0.04964561
2703	27.02000000	-0.49538884	-0.29545736	-0.35758943	-0.19982038	0.12216852	0.25111709	-0.59847188	-0.26578666	2.36940785	-0.29262370	0.35343070	0.87960927	-0.19454767	-0.10370419	0.47632302	0.18917852	-0.07016604	1.10659509	-0.63807773	2.85168026	1.91056402	-0.00504380	-0.35311811	0.07897802
2704	27.03000000	-0.46485956	-0.30487665	-0.36269551	-0.24798965	0.14625082	0.15183899	-0.12572581	-0.16875529	2.68541132	-0.44162442	0.29209681	0.92861086	-0.10987247	-0.10769213	0.48026450	0.36055280	0.03506211	0.99945544	-0.81588718	3.01311314	1.94575806	-0.01189279	-0.39820477	0.11032129
2705	27.04000000	-0.44192871	-0.30861629	-0.36067058	-0.26767237	0.15585205	0.04182710	0.27035176	-0.08548676	2.94220506	-0.53792400	0.21508411	0.94093735	0.01745011	-0.09428073	0.49260804	0.55158079	0.12598528	0.97023545	-0.94061196	3.14865829	1.95989513	-0.01383322	-0.42008413	0.13272691
2706	27.05000000	-0.43435219	-0.32784284	-0.34593778	-0.25036497	0.17622998	-0.07177955	0.61395161	-0.02526449	3.14298798	-0.55652199	0.11654882	0.89468090	0.11858086	-0.06033170	0.56564688	0.67973025	0.16188882	0.94776139	-0.95477746	3.21818204	1.95153245	-0.04019373	-0.44260036	0.15290833
2707	27.06000000	-0.42706600	-0.35621410	-0.33780901	-0.21623200	0.21523177	-0.15607221	0.90812630	0.03248376	3.32810523	-0.50906463	0.01019443	0.80671712	0.17641889	-0.04003308	0.62529453	0.65602789	0.12191169	0.89426937	-0.92868405	3.25758971	1.96307666	-0.00260640	-0.43007514	0.14718034
2708	27.07000000	-0.39540273	-0.35806789	-0.33348782	-0.16820578	0.24790970	-0.20593125	1.15401776	0.11116026	3.54797277	-0.40822338	-0.09019185	0.68840363	0.16756749	-0.01757453	0.64953923	0.58340430	0.07321318	0.84816755	-0.88898717	3.29128747	2.01314577	-0.01911384	-0.44802812	0.15668671
2709	27.08000000	-0.32018659	-0.32335460	-0.33545229	-0.12483095	0.26960449	-0.23109055	1.32511026	0.21053709	3.80266487	-0.26429951	-0.15579031	0.57589169	0.12354556	0.00475253	0.64819758	0.46367871	0.06011385	0.80126317	-0.82504826	3.32045847	2.07820098	-0.06708993	-0.44444770	0.16984850
2710	27.09000000	-0.28413976	-0.28743982	-0.30005962	-0.08234559	0.27885557	-0.22493400	1.34332267	0.28887998	4.06685942	-0.06512473	-0.18787572	0.44601653	0.04911980	0.03431959	0.66665752	0.35238776	0.03793169	0.73447345	-0.71861318	3.29469427	2.10579992	-0.05234500	-0.41913249	0.17835972
2711	27.10000000	-0.28447995	-0.25855951	-0.25517804	-0.04396604	0.27779051	-0.20085860	1.28185759	0.36089093	4.29564726	0.17559043	-0.19559516	0.30032472	-0.02074190	0.05744416	0.72140970	0.25229921	0.02175897	0.69427475	-0.64102848	3.13487828	2.08545357	-0.08281985	-0.40575342	0.18545146
2712	27.11000000	-0.28746402	-0.23400856	-0.21104599	-0.03277660	0.27911662	-0.15014153	1.22013721	0.44019854	4.45337456	0.43314325	-0.21478107	0.14721410	-0.06500573	0.09379728	0.77818846	0.15429940	0.02266507	0.69884978	-0.65863635	2.91524222	2.09480197	-0.07473146	-0.36298163	0.18276307
2713	27.12000000	-0.28109337	-0.19154301	-0.15865384	-0.03584800	0.28018064	-0.09223888	1.12625693	0.46447263	4.53308641	0.65723472	-0.24946673	-0.04810975	-0.09858151	0.12761061	0.80549492	0.05015663	0.05831413	0.73750426	-0.72817932	2.77414883	2.19514337	-0.09461544	-0.36690181	0.20673623
